<?xml version="1.0" ?><!DOCTYPE svg  PUBLIC '-//W3C//DTD SVG 1.1//EN'  'http://www.w3.org/Graphics/SVG/1.1/DTD/svg11.dtd'><svg enable-background="new 0 0 64 64" height="64px" version="1.1" viewBox="0 0 64 64" width="64px" xml:space="preserve" xmlns="http://www.w3.org/2000/svg" xmlns:xlink="http://www.w3.org/1999/xlink"><g id="Ebene_2"/><g id="Ebene_1"><path d="M54,10H10c-1.104,0-2,0.896-2,2v32c0,1.104,0.896,2,2,2h20v4h-8c-1.104,0-2,0.896-2,2s0.896,2,2,2h20c1.104,0,2-0.896,2-2   s-0.896-2-2-2h-8v-4h20c1.104,0,2-0.896,2-2V12C56,10.896,55.104,10,54,10z M28,34c-0.512,0-1.024-0.195-1.414-0.586l-4-4   c-0.781-0.781-0.781-2.047,0-2.828l4-4c0.78-0.781,2.048-0.781,2.828,0c0.781,0.781,0.781,2.047,0,2.828L26.829,28l2.585,2.586   c0.781,0.781,0.781,2.047,0,2.828C29.024,33.805,28.512,34,28,34z M41.414,29.414l-4,4C37.023,33.805,36.512,34,36,34   s-1.023-0.195-1.414-0.586c-0.781-0.781-0.781-2.047,0-2.828L37.172,28l-2.586-2.586c-0.781-0.781-0.781-2.047,0-2.828   c0.781-0.781,2.047-0.781,2.828,0l4,4C42.195,27.367,42.195,28.633,41.414,29.414z"/></g></svg>